<svg width="463" height="465" viewBox="0 0 463 465" fill="none" xmlns="http://www.w3.org/2000/svg">
<path d="M72.0062 463.84C72.0062 463.84 -66.9841 280.874 41.2438 224.386C130.247 177.933 4.39263 47.151 152.363 9.93278C300.333 -27.2855 397.971 46.2616 418.047 128.081C438.124 209.901 371.219 240 425.924 305.192C464.342 337.5 494.874 411.5 395.645 463.84H72.0062Z" fill="black" fill-opacity="0.1"/>
<path d="M393.785 464.494H369.57C368.274 463.408 370.469 460.944 372.761 460.78C373.757 460.706 375.018 460.912 376.458 461.211C376.793 456.848 378.694 437.237 385.867 438.023C393.931 438.905 385.867 446.659 383.586 451.253C381.897 454.653 380.115 459.529 379.303 461.831C379.958 461.97 380.635 462.107 381.327 462.234C382.396 458.998 386.373 448.119 391.43 448.752C397.367 449.494 394.981 453.858 390.773 456.447C387.686 458.351 383.895 461.058 382.092 462.364C383.619 462.61 385.212 462.775 386.827 462.738C390.975 462.64 393.002 463.844 393.785 464.494Z" fill="#82B378"/>
<path d="M74.2855 464.01H98.5001C99.7967 462.924 97.6012 460.46 95.3091 460.296C94.3137 460.221 93.0524 460.428 91.6122 460.727C91.2781 456.364 89.3767 436.752 82.204 437.539C74.1396 438.42 82.204 446.175 84.4843 450.768C86.1739 454.169 87.9553 459.045 88.7672 461.347C88.113 461.486 87.4353 461.623 86.7434 461.75C85.6751 458.514 81.6981 447.634 76.641 448.268C70.7038 449.01 73.09 453.374 77.2976 455.962C80.385 457.867 84.1761 460.574 85.9786 461.88C84.4514 462.126 82.8582 462.291 81.2439 462.254C77.0952 462.156 75.0714 463.36 74.2855 464.01Z" fill="#82B378"/>
<path d="M245.546 440.063C245.546 440.063 244.862 442.184 244.924 444.389C244.985 446.594 241.553 448.138 241.553 448.138L234.683 445.578V442.674C234.683 442.674 235.626 440.636 235.999 437.573C236.376 434.505 245.546 440.063 245.546 440.063Z" fill="#E6E6E6"/>
<path opacity="0.97" d="M344.674 138.951C344.674 138.951 347.508 135.827 347.791 133.137C348.149 129.729 349.399 120.88 349.696 117.924C349.993 114.964 353.463 113.994 353.024 119.104C352.855 121.104 352.76 124.647 352.666 126.405C352.51 129.235 352.52 134.056 352.52 134.056L354.363 134.816L353.609 139.259L344.674 138.951Z" fill="#FFA8A7"/>
<path opacity="0.97" d="M343.755 144.159C344.227 145.227 344.839 146.373 345.287 147.287C346.839 150.43 348.324 151.395 348.602 152.532C348.871 153.637 348.229 159.708 348.229 159.708L358.192 160.542C358.192 160.542 358.522 155.283 358.753 153.982C358.984 152.682 359.941 150.001 360.87 147.693C361.794 145.385 362.713 140.718 362.713 140.718C360.181 140.536 355.325 143.735 355.325 143.735C355.325 143.735 354.335 142.215 352.36 141.539C350.917 141.04 349.248 140.732 349.248 140.732L350.186 139.632C350.186 139.632 350.973 140.378 352.77 140.639C354.566 140.895 355.486 138.681 355.486 138.681C355.486 138.681 351.247 137.161 349.988 136.289C348.729 135.417 347.687 134.83 346.857 136.028C346.032 137.226 343.453 140.35 343.114 141.483C342.944 142.052 343.269 143.063 343.755 144.159Z" fill="#FFA8A7"/>
<path d="M361.247 142.28C361.247 142.28 360.643 144.08 359.389 144.345C358.074 144.625 357.73 143.665 357.73 143.665C357.73 143.665 356.631 144.471 355.278 143.968C354.283 143.259 353.505 142.35 351.973 141.749C350.441 141.147 349.116 140.886 349.116 140.886L350.191 139.623C350.191 139.623 351.737 141.063 354.745 140.364C355.528 140.373 360.695 141.599 361.247 142.28Z" fill="#FF8D8D"/>
<path opacity="0.97" d="M362.892 138.597C363.359 139.483 362.59 141.478 362.199 143.073C361.808 144.667 358.818 144.056 358.554 142.928C358.323 141.926 358.828 139.324 359.398 138.308C359.974 137.287 362.166 137.203 362.892 138.597Z" fill="#FFA8A7"/>
<path opacity="0.97" d="M357.918 135.142C359.064 134.993 360.238 136.364 359.922 137.935C359.649 139.306 359.229 141.781 358.041 142.583C356.669 143.506 355.759 143.203 355.245 141.557C354.731 139.916 355.514 135.459 357.918 135.142Z" fill="#FFA8A7"/>
<path opacity="0.97" d="M355.953 132.76C356.764 133.24 356.773 134.681 356.674 136.695C356.575 138.704 355.976 141.04 354.755 141.525C353.534 142.01 352.233 141.721 351.95 138.919C351.709 136.545 352.228 134.578 352.846 133.301C353.185 132.62 354.411 131.846 355.953 132.76Z" fill="#FFA8A7"/>
<path d="M359.918 137.935C359.918 137.935 359.705 139.128 359.517 139.781C359.328 140.434 358.564 142.056 358.564 142.056C358.564 142.056 358.649 141.082 359.281 139.511C359.918 137.935 359.918 137.935 359.918 137.935Z" fill="#FF8D8D"/>
<path d="M356.711 135.73C356.711 135.73 355.999 137.431 355.867 137.963C355.731 138.49 355.226 141.059 355.226 141.059C355.226 141.059 354.981 139.637 355.325 138.434C355.731 137.021 356.711 135.73 356.711 135.73Z" fill="#FF8D8D"/>
<path d="M353.633 132.559C353.633 132.559 352.85 133.301 352.61 134.093C352.421 134.709 351.95 136.634 351.95 136.634C351.95 136.634 352.091 134.965 352.412 134.005C352.742 133.044 353.633 132.559 353.633 132.559Z" fill="#FF8D8D"/>
<path d="M352.468 140.518C352.468 140.518 353.217 140.891 354.495 140.14C355.047 139.818 355.415 138.825 355.415 138.825L355.372 138.629L355.325 138.429C355.325 138.429 355.216 139.175 354.193 139.958C353.472 140.513 352.468 140.518 352.468 140.518Z" fill="#FF8D8D"/>
<path d="M298.031 434.03C298.031 434.03 298.455 437.876 300.992 441.746C301.713 443.499 302.138 443.606 301.878 444.361C301.251 446.18 298.149 447.261 298.149 447.261L285.9 447.858L284.773 444.049C284.773 444.049 286.56 441.312 286.739 434.407C286.866 429.713 298.031 434.03 298.031 434.03Z" fill="#E6E6E6"/>
<path d="M330.667 242.514C330.667 242.514 326.344 335.581 306.48 401.65C300.181 423.95 299.861 434.743 299.861 434.743C299.861 434.743 288.144 436.328 283.651 433.475C283.651 433.475 288.427 335.945 301.068 270.594C301.068 270.594 282.289 347.731 265.315 388.442C248.342 429.153 249.426 440.221 249.426 440.221C249.426 440.221 238.483 440.785 231.147 434.51C231.147 434.51 254.118 337.931 257.489 326.504C260.86 315.077 262.463 294.759 262.463 294.759C262.463 294.759 263.42 260.03 272.534 241.707C281.657 223.384 330.667 242.514 330.667 242.514Z" fill="#E23939"/>
<path d="M263.51 140.168C263.51 140.168 242.09 166.3 232.265 187.019C231.175 189.317 230.878 191.91 231.397 194.395C235.786 215.3 263.51 232.066 263.51 232.066C263.51 232.066 262.949 229.366 268.644 222.699C268.644 222.699 259.408 205.868 252.147 197.406C251.487 196.637 251.341 195.556 251.774 194.642C253.769 190.436 259.912 178.468 269.521 168.58C281.407 156.355 263.51 140.168 263.51 140.168Z" fill="#FDE9D2"/>
<path d="M325.061 152.071L346.089 190.954C346.089 190.954 345.127 171.671 347.895 157.982C347.895 157.982 352.35 153.698 358.97 159.292C358.97 159.292 357.225 168.319 358.97 183.932C361.129 203.271 355.839 207.836 354.377 209.859C354.179 210.134 353.967 210.405 353.731 210.652C351.652 212.834 350.294 213.64 348.173 212.423C341.841 208.787 329.799 200.446 320.954 185.741C320.954 185.741 316.117 173.694 316.475 167.624C316.838 161.554 325.061 152.071 325.061 152.071Z" fill="#A3A3A3"/>
<path d="M320.949 185.737C329.794 200.446 341.841 208.782 348.173 212.419C350.29 213.64 351.652 212.829 353.727 210.652C353.962 210.405 354.175 210.134 354.373 209.859C355.834 207.831 361.129 203.267 358.965 183.928C358.225 177.293 358.112 171.853 358.234 167.782C358.234 167.782 349.601 162.318 346.64 166.677C346.64 166.677 346.64 166.682 346.636 166.682C345.471 178.622 346.084 190.954 346.084 190.954L325.061 152.066C325.061 152.066 316.833 161.549 316.475 167.624C316.112 173.694 320.949 185.737 320.949 185.737Z" fill="#FDE9D2"/>
<path d="M293.83 126.913L294.165 136.83C294.165 136.83 298.177 145.32 290.633 148.178C283.09 151.036 281.567 137.543 281.567 137.543C281.567 137.543 283.976 134.065 281.567 127.589C281.567 127.594 286.913 129.692 293.83 126.913Z" fill="#FF9999"/>
<path d="M290.619 129.347C290.619 129.347 288.309 132.149 286.103 131.039C283.896 129.93 281.567 127.594 281.567 127.594C281.567 127.594 286.31 130.433 290.619 129.347Z" fill="#FC7575"/>
<path d="M306.531 140.168C307.314 140.877 308.931 141.716 310.977 142.317C315.292 143.59 316.937 144.173 319.846 145.721C321.397 146.546 323.467 148.224 325.061 152.071C325.061 152.071 314.787 160.164 320.567 184.133C325.325 203.873 329.214 225.981 330.44 233.166C330.709 234.742 331.374 236.229 332.369 237.488L333.844 239.348C334.264 239.875 334.122 240.649 333.538 240.994C328.257 244.155 302.477 256.412 272.538 241.707C273.382 236.35 273.825 205.934 273.598 197.267C273.363 188.152 273.433 175.391 269.53 168.58C269.53 168.58 273.745 153.898 263.509 140.168C263.509 140.168 267.238 138.256 271.364 137.748L288.398 141.674C288.398 141.674 289.459 142.01 290.411 141.795C291.369 141.576 306.531 140.168 306.531 140.168Z" fill="#E85353"/>
<path d="M274.948 121.421C279.13 125.841 282.652 128.33 284.971 129.669C286.763 130.704 288.984 130.699 290.747 129.627C293.538 127.925 297.772 124.68 300.351 119.523C304.453 111.323 300.747 87.3167 300.747 87.3167C295.957 89.9042 289.29 91.0465 288.828 91.121C283.09 92.0535 275.273 91.9603 269.045 89.9835C269.04 89.9835 267.347 113.393 274.948 121.421Z" fill="#FFA8A7"/>
<path d="M270.86 92.5197C270.86 92.5197 271.147 93.1911 269.709 97.0748C268.271 100.958 269.709 107.723 269.709 107.723C269.709 107.723 262.133 95.4476 262.647 88.7526C263.161 82.053 270.86 92.5197 270.86 92.5197Z" fill="black"/>
<path d="M298.342 89.6525C298.342 89.6525 297.663 92.5244 299.827 95.6948C301.991 98.8651 302.284 104.502 302.284 104.502C302.284 104.502 309.092 92.958 304.415 86.5148C299.738 80.0716 298.342 89.6525 298.342 89.6525Z" fill="black"/>
<path d="M259.318 84.1696C260.666 88.0486 264.41 90.5523 269.045 92.0115C275.273 93.9837 283.09 94.0816 288.828 93.1491C289.29 93.0745 295.957 91.9323 300.747 89.3447C303.335 87.9461 305.377 86.1231 305.589 83.8246C305.976 79.6892 300.275 76.1506 299.828 75.8801C295.415 73.2087 292.058 74.4162 284.636 74.1504C270.817 73.6656 266.786 68.9147 262.463 72.0804C259.059 74.5701 257.922 80.1554 259.318 84.1696Z" fill="black"/>
<path d="M294.033 132.862C294.033 132.862 297.338 131.613 306.607 138.993L305.825 151.432L290.417 141.79C290.412 141.795 293.938 139.077 294.033 132.862Z" fill="#FDE9D2"/>
<path d="M282.633 132.783C282.633 132.783 274.283 132.746 270.732 136.853C270.732 136.853 277.776 146.91 282.227 151.852L288.399 141.674C288.399 141.674 281.987 138.462 282.633 132.783Z" fill="#FDE9D2"/>
<path d="M346.641 166.677C349.602 162.318 358.234 167.782 358.234 167.782C358.39 162.272 358.965 159.288 358.965 159.288C352.346 153.693 347.89 157.978 347.89 157.978C347.338 160.719 346.933 163.684 346.641 166.677Z" fill="#FF7676"/>
<path d="M263.505 232.056C263.481 231.907 263.099 229.18 268.644 222.695C268.644 222.695 266.522 218.83 263.509 213.864C263.509 213.864 258.879 215.752 255.617 226.522C260.063 229.958 263.358 231.968 263.505 232.056Z" fill="#FF7676"/>
<path opacity="0.97" d="M263.689 225.235L268.04 223.45L269.323 224.876L278.026 216.685C278.319 216.41 278.715 216.274 279.115 216.321C280.36 216.461 283.194 216.964 285.612 218.727C287.597 220.172 286.975 220.848 286.211 221.151C285.693 221.356 285.113 221.319 284.622 221.067C283.42 220.456 280.69 219.221 279.276 219.794C277.932 220.345 277.437 221.464 277.267 222.028C277.215 222.2 277.347 222.368 277.531 222.363L279.214 222.326C280.143 222.303 281.034 222.69 281.647 223.375L285.65 227.837C285.985 228.21 286.263 228.634 286.442 229.105C286.768 229.972 286.829 231.086 284.533 230.387C284.533 230.387 286.258 231.259 285.495 232.452C284.731 233.641 282.123 232.056 282.123 232.056C282.123 232.056 276.749 229.012 274.49 228.774C274.49 228.774 276.659 230.532 281.11 233.329C281.11 233.329 282.312 234.164 281.954 235.026C281.775 235.46 281.223 235.539 280.718 235.516C280.223 235.488 279.738 235.348 279.295 235.129L275.617 233.324C275.254 233.147 274.83 233.128 274.457 233.287C273.434 233.716 271.162 234.592 268.639 235.031C267.083 235.357 263.019 230.476 263.019 230.476L263.689 225.235ZM282.227 228.592L279.78 226.135L275.688 225.259L282.227 228.592Z" fill="#FFA8A7"/>
<path d="M271.576 222.774C270.774 223.38 270.081 224.079 269.412 224.806C268.752 225.538 268.12 226.298 267.597 227.147C268.398 226.541 269.096 225.841 269.761 225.114C270.416 224.382 271.048 223.622 271.576 222.774Z" fill="#FF8D8D"/>
<path d="M278.012 222.364C278.012 222.364 276.772 222.709 274.985 222.303L278.012 222.364Z" fill="#FF8D8D"/>
<path d="M282.137 450.926C282.137 450.926 289.478 454.003 296.881 452.474C305.339 452.772 311.426 459.099 324.66 454.497C324.66 454.497 326.584 449.42 315.028 447.914C304.132 445.872 300.987 441.009 300.987 441.009C300.987 441.009 298.097 448.706 284.773 443.308C284.773 443.308 281.143 447.835 282.137 450.926Z" fill="#742A2A"/>
<path d="M282.769 456.544C283.477 457.458 291.614 456.819 295.627 455.518C297.013 455.066 298.54 455.616 299.903 456.134C304.457 457.863 315.971 461.5 324.057 457.714C324.057 457.714 325.863 456.763 324.66 454.497C311.426 459.099 305.339 452.772 296.881 452.474C289.478 454.003 282.138 450.926 282.138 450.926C282.138 450.926 280.907 454.143 282.769 456.544Z" fill="#8E8E8E"/>
<path d="M245.546 452.329L245.117 455.313C245.046 455.793 244.683 456.185 244.198 456.269C243.085 456.464 241.109 457.294 240.492 460.702L240.209 462.036C240.129 462.418 239.879 462.74 239.525 462.908C238.106 463.593 234.127 465.076 228.931 463.281C222.392 461.019 222.632 460.026 222.632 460.026L223.198 456.693L235.353 452.525L245.546 452.329Z" fill="#8E8E8E"/>
<path d="M245.282 444.697L245.546 452.334C245.546 452.334 241.373 452.096 240.572 458.208C239.77 464.32 227.893 460.749 227.893 460.749C227.893 460.749 223.924 459.602 223.24 457.28C222.556 454.958 228.657 450.991 228.657 450.991C228.657 450.991 233.316 447.037 234.537 442.552C234.603 442.506 236.451 443.82 245.282 444.697Z" fill="#742A2A"/>
<path d="M207.538 155.373C196.92 154.408 190.409 149.335 190.409 149.335L160.918 147.923C160.918 147.923 156.137 149.829 144.666 153.023C133.266 156.198 135.982 182.353 135.982 182.353L138.66 219.684C138.66 219.684 139.395 225.116 140.908 227.717L142.332 222.034L159.966 231.759C187.684 241.121 200.409 227.26 200.409 227.26C200.631 227.918 200.886 228.566 201.178 229.195L207.09 241.806C212.79 230.976 213.818 222.64 213.818 222.64L215.615 181.491C215.61 181.491 218.156 156.338 207.538 155.373Z" fill="#FDE9D2"/>
<path d="M218.151 437.887C218.151 437.887 210.853 440.003 198.99 438.838C198.99 438.838 208.599 435.546 218.151 437.887Z" fill="#AE3E3E"/>
<path d="M202.224 436.166C202.224 436.166 201.927 441.374 200.942 445.234C199.957 449.095 206.784 454.083 206.784 454.083L211.513 454.135L214.747 444.689C214.747 444.689 213.63 438.857 213.903 436.143C214.176 433.43 214.059 431.793 214.059 431.793L201.588 432.488C201.593 432.488 202.144 434.264 202.224 436.166Z" fill="#E6E6E6"/>
<path d="M218.099 457.193L218.066 460.242C218.062 460.839 217.779 461.394 217.298 461.753C216.114 462.643 213.413 464.084 208.316 464.117C203.333 464.154 200.296 462.89 198.853 462.065C198.217 461.702 197.84 461.016 197.863 460.284L197.977 456.62C197.972 456.624 206.826 464.774 218.099 457.193Z" fill="#8E8E8E"/>
<path d="M200.942 445.234C200.942 445.234 205.459 453.846 208.439 453.254C211.418 452.661 214.747 444.684 214.747 444.684C214.747 444.684 219.844 456.051 217.562 458.517C215.284 460.984 208.523 461.445 208.523 461.445C208.523 461.445 202.573 461.823 199.363 459.142C198.533 458.447 198.052 457.44 197.943 456.373C197.444 451.487 200.942 445.234 200.942 445.234Z" fill="#742A2A"/>
<path d="M150.725 440.651C150.725 440.651 162.398 440.432 170.984 439.22C170.984 439.22 157.712 434.315 150.725 440.651Z" fill="#AE3E3E"/>
<path d="M154.331 436.246C154.331 436.246 154.034 441.453 153.049 445.314C152.064 449.174 158.891 454.163 158.891 454.163L163.62 454.214L166.854 444.768C166.854 444.768 165.736 438.936 166.01 436.222C166.283 433.509 166.166 431.873 166.166 431.873L153.695 432.567C153.7 432.563 154.251 434.339 154.331 436.246Z" fill="#E6E6E6"/>
<path d="M170.206 457.273L170.173 460.322C170.169 460.918 169.886 461.473 169.405 461.832C168.221 462.723 165.52 464.163 160.423 464.196C155.439 464.233 152.403 462.97 150.96 462.145C150.324 461.781 149.947 461.096 149.97 460.364L150.083 456.699C150.083 456.699 158.933 464.853 170.206 457.273Z" fill="#8E8E8E"/>
<path d="M153.049 445.314C153.049 445.314 157.566 453.925 160.546 453.333C163.525 452.741 166.854 444.764 166.854 444.764C166.854 444.764 171.951 456.13 169.669 458.597C167.392 461.063 160.631 461.524 160.631 461.524C160.631 461.524 154.68 461.902 151.47 459.221C150.64 458.527 150.159 457.52 150.05 456.452C149.555 451.561 153.049 445.314 153.049 445.314Z" fill="#742A2A"/>
<path d="M202.427 227.246C202.427 227.246 221.956 259.593 218.358 307.791C214.761 355.99 218.151 437.891 218.151 437.891L214.417 437.756C211.173 437.635 207.92 437.77 204.699 438.157L198.99 438.842C198.99 438.842 186.713 301.661 181.385 283.343C181.385 283.343 172.445 394.122 170.984 439.22C170.984 439.22 159.927 436.577 150.724 440.651C150.724 440.651 152.478 350.106 145.378 302.029C138.277 253.951 160.012 229.834 160.012 229.834C160.012 229.834 183.091 234.044 202.417 227.241L202.427 227.246Z" fill="#E85353"/>
<path d="M185.072 140.267C185.072 140.267 184.388 139.731 183.115 139.726L183.181 142.925L183.403 144.477C183.403 144.477 184.94 142.085 185.072 140.267Z" fill="#CCCCCC"/>
<path d="M168.094 131.031L168.391 143.605L168.91 148.421C168.91 148.421 172.569 153.932 172.851 154.123C173.134 154.315 180.004 154.203 180.004 154.203L184.162 149.345L183.191 142.263L183.031 134.411L168.094 131.031Z" fill="#FF9C9C"/>
<path d="M168.131 132.094C168.131 132.094 171.507 138.192 175.081 138.514C178.655 138.836 183.03 134.514 183.03 134.514C183.03 134.514 174.444 137.833 168.131 132.094Z" fill="#FF9797"/>
<path d="M175.52 93.1645C174.081 92.7635 172.544 92.9967 171.309 93.8265C168.051 96.0178 161.639 101.319 160.178 109.781C159.659 109.464 158.806 109.268 158.145 110.741C157.363 112.494 159.437 116.569 160.409 118.313C162.459 128.588 170.178 135.353 173.964 137.036C175.864 137.88 177.825 137.782 179.268 137.027C183.558 134.77 191.441 131.022 191.668 115.478C191.894 99.4958 180.512 94.5585 175.52 93.1645Z" fill="#FFA8A7"/>
<path d="M158.15 110.741C157.368 112.494 159.437 116.569 160.409 118.313C160.418 118.369 160.432 118.429 160.446 118.48C160.446 118.49 160.446 118.499 160.451 118.508C160.871 120.76 161.507 122.667 162.276 124.271C162.276 124.28 162.28 124.285 162.285 124.29C165.345 130.691 170.333 132.295 170.333 132.295C170.333 132.295 169.353 132.57 167.731 132.691C162.709 133.069 153.657 131.045 146.646 117.702C137.089 97.7707 148.843 84.2222 148.843 84.2222C148.843 84.2222 157.834 69.9045 173.756 75.1588L173.761 92.9686C173.761 92.9686 173.747 92.9779 173.723 92.9919C173.091 93.3556 164.897 98.1997 161.399 105.65C161.281 105.897 161.168 106.158 161.069 106.41C160.635 107.487 160.333 108.615 160.154 109.762C159.635 109.459 158.796 109.291 158.15 110.741Z" fill="black"/>
<path d="M160.446 118.481C160.432 118.429 160.418 118.369 160.409 118.313C159.437 116.569 157.363 112.494 158.15 110.741C158.796 109.291 159.635 109.459 160.154 109.767C160.031 110.527 159.97 111.296 159.956 112.061C159.918 114.466 160.102 116.597 160.446 118.481Z" fill="#FF9797"/>
<path d="M173.633 75.1588C173.633 75.1588 192.092 68.7296 202.37 90.1386C212.648 111.548 186.439 136.328 186.439 136.328C186.439 136.328 193.718 115.11 184.133 105.911C174.548 96.7124 173.633 92.9686 173.633 92.9686V75.1588Z" fill="black"/>
<path d="M176.859 151.951C178.886 150.221 183.846 145.545 185.077 140.267L191.408 146.44C192.21 147.223 192.29 148.477 191.583 149.349C188.58 153.051 180.748 162.212 175.864 163.508L175.972 153.839C175.982 153.112 176.302 152.426 176.859 151.951Z" fill="white"/>
<path d="M167.075 139.787C167.075 139.787 167.896 139.428 168.292 139.447C168.688 139.465 168.386 143.409 168.386 143.409C168.386 143.409 167.075 141.069 167.075 139.787Z" fill="#CCCCCC"/>
<path d="M130.017 176.619L147.033 168.348L175.506 236.617L155.439 237.825L130.017 176.619Z" fill="#4D4D4D"/>
<path d="M175.124 151.792C173.111 149.993 168.198 145.153 167.08 139.787L160.531 145.89C159.702 146.664 159.593 147.932 160.286 148.827C163.242 152.636 170.956 162.086 175.869 163.508L175.982 153.718C175.987 152.986 175.675 152.282 175.124 151.792Z" fill="white"/>
<path d="M140.781 229.265C138.697 226.286 138.631 222.397 140.866 219.521C142.455 217.474 145.043 215.684 149.235 215.796C155.727 215.968 159.471 212.285 161.21 209.898C162.026 208.779 163.384 208.117 164.822 208.159C165.086 208.168 165.35 208.168 165.614 208.126C167.217 207.875 169.485 207.506 171.13 209.082C173.606 211.451 173.13 216.075 171.913 218.668C171.267 220.043 170.07 221.143 168.547 221.656C166.675 222.281 163.789 222.705 160.154 221.507C154.063 219.498 149.669 241.988 140.781 229.265Z" fill="#FFA8A7"/>
<path d="M202.418 227.265C201.55 223.325 201.069 219.297 201.036 215.241C201.022 213.213 201.154 211.18 201.446 209.152L201.725 207.641C201.833 207.138 201.979 206.644 202.106 206.145C202.215 205.641 202.432 205.161 202.597 204.672L203.111 203.254C204.539 199.576 204.978 195.571 205.011 191.599C205.006 189.608 204.883 187.608 204.667 185.617C204.469 183.622 204.143 181.64 203.724 179.668C204.987 183.5 205.704 187.524 205.888 191.58C205.911 192.088 205.907 192.596 205.916 193.105L205.921 193.869L205.883 194.634C205.855 195.142 205.845 195.65 205.798 196.158L205.633 197.683C205.336 199.702 204.926 201.725 204.157 203.646L203.629 205.063C203.469 205.525 203.262 205.968 203.153 206.448C203.031 206.924 202.884 207.394 202.776 207.875L202.488 209.329C202.149 211.278 201.993 213.269 201.904 215.26C201.833 217.255 201.866 219.26 201.956 221.26C202.026 223.26 202.201 225.26 202.418 227.265Z" fill="#FFD5B0"/>
</svg>
